<svg width="60" height="68" viewBox="0 0 60 68" fill="none" xmlns="http://www.w3.org/2000/svg">
<path d="M35.5 0.477295C48.7548 0.477295 59.5 11.2225 59.5 24.4773C59.5 37.7321 48.7548 48.4773 35.5 48.4773C26.5 48.4773 19.5836 48.4777 18.5 54.9822C18.1544 57.0572 18.0008 61.9825 27 67.9822C3.50033 58.4777 0 43.9773 0 33.4773C0 17.4774 14 0.477295 35.5 0.477295ZM35.5 8.91675C27.446 8.91679 20.9172 15.4458 20.917 23.4998C20.917 31.5538 27.4459 38.0837 35.5 38.0837C43.5541 38.0837 50.083 31.5538 50.083 23.4998C50.0828 15.4457 43.554 8.91675 35.5 8.91675ZM26.0762 31.9187C26.2392 31.7621 26.4981 31.7573 26.6602 31.9148L28.0918 33.3064C28.2941 33.5029 28.2991 33.8268 28.0957 34.0222C27.8922 34.2174 27.569 34.199 27.3809 33.989L26.0488 32.5017C25.8982 32.3333 25.9133 32.0752 26.0762 31.9187ZM44.3369 31.9148C44.4989 31.7573 44.7577 31.7621 44.9209 31.9187C45.0838 32.0752 45.099 32.3333 44.9482 32.5017L43.6162 33.989C43.4281 34.1991 43.1049 34.2175 42.9014 34.0222C42.698 33.8268 42.703 33.5029 42.9053 33.3064L44.3369 31.9148ZM27.8809 29.7048C28.1215 29.3229 28.6146 29.1704 29.0127 29.3835L29.9619 29.8914C30.4596 30.1578 30.6493 30.7808 30.3486 31.2585C30.0479 31.7364 29.4058 31.8321 28.9502 31.4988L28.082 30.863C27.7175 30.5963 27.6403 30.0871 27.8809 29.7048ZM41.9844 29.3835C42.3824 29.1704 42.8755 29.3228 43.1162 29.7048C43.3568 30.0871 43.2796 30.5963 42.915 30.863L42.0469 31.4988C41.5913 31.8321 40.9492 31.7364 40.6484 31.2585C40.3477 30.7808 40.5374 30.1578 41.0352 29.8914L41.9844 29.3835ZM29.2119 26.7332C29.3368 26.2997 29.7687 26.0134 30.21 26.1072L31.2627 26.3308C31.8153 26.4482 32.1708 26.9969 32.0146 27.5398C31.8584 28.0826 31.2688 28.3508 30.7383 28.157L29.7266 27.7869C29.303 27.6317 29.0872 27.1666 29.2119 26.7332ZM40.7871 26.1072C41.2283 26.0134 41.6602 26.2997 41.7852 26.7332C41.9098 27.1666 41.6941 27.6317 41.2705 27.7869L40.2588 28.157C39.7282 28.3507 39.1386 28.0826 38.9824 27.5398C38.8262 26.9969 39.1817 26.4482 39.7344 26.3308L40.7871 26.1072ZM31.5283 22.5505C32.0907 22.5118 32.5818 22.9361 32.582 23.4998C32.582 24.0636 32.0908 24.4887 31.5283 24.45L30.4541 24.3757C30.0028 24.3443 29.665 23.9523 29.665 23.4998C29.6652 23.0475 30.0029 22.6562 30.4541 22.6248L31.5283 22.5505ZM39.4688 22.5505L40.543 22.6248C40.9942 22.6562 41.3319 23.0475 41.332 23.4998C41.332 23.9523 40.9943 24.3443 40.543 24.3757L39.4688 24.45C38.9063 24.4887 38.415 24.0636 38.415 23.4998C38.4152 22.9361 38.9064 22.5118 39.4688 22.5505ZM30.7383 18.8435C31.2689 18.6496 31.8584 18.9178 32.0146 19.4607C32.1706 20.0035 31.8152 20.5524 31.2627 20.6697L30.21 20.8933C29.7687 20.987 29.3369 20.7007 29.2119 20.2673C29.0872 19.8338 29.303 19.3687 29.7266 19.2136L30.7383 18.8435ZM38.9824 19.4607C39.1386 18.9178 39.7282 18.6496 40.2588 18.8435L41.2705 19.2136C41.6941 19.3687 41.9098 19.8338 41.7852 20.2673C41.6601 20.7007 41.2282 20.987 40.7871 20.8933L39.7344 20.6697C39.1818 20.5524 38.8263 20.0035 38.9824 19.4607ZM28.9502 15.5007C29.4058 15.1674 30.0479 15.2641 30.3486 15.7419C30.6492 16.2197 30.4596 16.8427 29.9619 17.1091L29.0127 17.6169C28.6147 17.8299 28.1215 17.6775 27.8809 17.2957C27.6403 16.9134 27.7175 16.4032 28.082 16.1365L28.9502 15.5007ZM40.6484 15.7419C40.9491 15.2642 41.5913 15.1674 42.0469 15.5007L42.915 16.1365C43.2796 16.4032 43.3568 16.9134 43.1162 17.2957C42.8755 17.6775 42.3823 17.8299 41.9844 17.6169L41.0352 17.1091C40.5375 16.8427 40.3479 16.2197 40.6484 15.7419ZM27.3809 13.0115C27.5689 12.8014 27.8922 12.7822 28.0957 12.9773C28.2992 13.1727 28.2941 13.4975 28.0918 13.6941L26.6602 15.0857C26.4981 15.2432 26.2392 15.2383 26.0762 15.0818C25.9132 14.9253 25.8981 14.6672 26.0488 14.4988L27.3809 13.0115ZM42.9014 12.9773C43.105 12.7822 43.4282 12.8014 43.6162 13.0115L44.9482 14.4988C45.099 14.6672 45.0839 14.9253 44.9209 15.0818C44.7577 15.2383 44.4989 15.2432 44.3369 15.0857L42.9053 13.6941C42.703 13.4975 42.6979 13.1727 42.9014 12.9773Z" fill="#00DAC0"/>
</svg>
