<svg width="60" height="68" viewBox="0 0 60 68" fill="none" xmlns="http://www.w3.org/2000/svg">
<path d="M36 0.00878906C49.2548 0.00878906 60 10.754 60 24.0088C60 37.2636 49.2548 48.0088 36 48.0088C27 48.0088 20.0836 48.0091 19 54.5137C18.6544 56.5887 18.5008 61.514 27.5 67.5137C4.00033 58.0092 0.5 43.5088 0.5 33.0088C0.5 17.0089 14.5 0.00878906 36 0.00878906ZM49.3223 26.8379C49.4038 27.1567 49.4472 27.4875 49.4473 27.8291C49.4473 29.8016 48.0083 31.4102 46.0879 32.4717C44.1424 33.547 41.5215 34.1807 38.6816 34.1807C35.8418 34.1807 33.2209 33.547 31.2754 32.4717C29.3549 31.4102 27.916 29.8016 27.916 27.8291C27.9161 27.4875 27.9596 27.1567 28.041 26.8379C26.6743 27.8661 25.6816 29.2286 25.6816 30.9092C25.6817 33.2945 27.681 35.0397 29.9121 36.0967C32.2405 37.1997 35.3432 37.8379 38.6816 37.8379C42.02 37.8379 45.1227 37.1997 47.4512 36.0967C49.6822 35.0397 51.6816 33.2945 51.6816 30.9092C51.6816 29.2286 50.6891 27.8661 49.3223 26.8379ZM24.3486 9.83789C22.3016 9.83792 20.38 11.2133 19.9307 13.335L19.8604 13.7695C19.2891 18.9019 20.0484 24.2092 22.6914 28.6943H21.8037C20.9442 28.6948 20.2471 29.399 20.2471 30.2666C20.2473 31.134 20.9443 31.8374 21.8037 31.8379H24.1846C24.1547 31.5819 24.1396 31.3197 24.1396 31.0518C24.1397 29.5563 24.6226 28.2461 25.3916 27.127C23.1486 23.3417 22.4386 18.7532 22.9541 14.1211L23.002 13.8984C23.1626 13.3914 23.6685 12.9805 24.3486 12.9805H26.2168C25.7325 16.9167 25.9664 21.2507 27.3145 25.0957C27.8325 24.6819 28.3864 24.3144 28.9531 23.9932C29.3033 23.7947 29.6683 23.6065 30.0479 23.4307C29.0379 20.1741 28.8811 16.4488 29.3584 12.9805H32.9326C33.3651 16.1237 33.2785 19.4834 32.5039 22.5137C33.5583 22.203 34.6795 21.9686 35.8467 21.8184C36.3994 18.8899 36.4263 15.8325 36.0752 12.9805H37.9668C38.7354 12.9805 39.2826 13.507 39.3564 14.1084L39.4326 14.8037C39.6538 17.0727 39.6144 19.4414 39.2236 21.625C40.2906 21.6376 41.3348 21.7189 42.3428 21.8633C42.7463 19.4105 42.7635 16.8529 42.5312 14.4814L42.4473 13.7246C42.1613 11.3821 40.1369 9.83789 37.9668 9.83789H24.3486ZM38.1816 23.8379C35.9758 23.8379 33.8752 24.1223 32.0449 24.6387L31.9707 24.6787C30.4057 25.538 29.6816 26.5885 29.6816 27.5586C29.6817 28.5289 30.4058 29.5783 31.9707 30.4375C33.5115 31.2835 35.705 31.8379 38.1816 31.8379C40.6582 31.8379 42.8518 31.2835 44.3926 30.4375C45.9575 29.5783 46.6816 28.5289 46.6816 27.5586C46.6816 26.5885 45.9575 25.538 44.3926 24.6787L44.3184 24.6387C42.4881 24.1223 40.3875 23.8379 38.1816 23.8379Z" fill="#00B58B"/>
</svg>
