<svg width="60" height="69" viewBox="0 0 60 69" fill="none" xmlns="http://www.w3.org/2000/svg">
<path d="M36 0.981934C49.2548 0.981934 60 11.7271 60 24.9819C60 38.2368 49.2548 48.9819 36 48.9819C27 48.9819 20.0836 48.9823 19 55.4868C18.6544 57.5618 18.5008 62.4871 27.5 68.4868C4.00033 58.9823 0.5 44.4819 0.5 33.9819C0.5 17.9821 14.5 0.981934 36 0.981934ZM32.0488 25.9595C31.6672 29.8019 29.7948 33.2058 27.0176 35.5835C29.22 37.469 31.9911 38.7096 35.0381 39.0122V25.9595H32.0488ZM37.9551 39.0122C41.0021 38.7095 43.7732 37.469 45.9756 35.5835C43.1982 33.2058 41.325 29.802 40.9434 25.9595H37.9551V39.0122ZM21.9854 25.9595C22.2651 28.7763 23.3465 31.3573 24.998 33.4712C27.2165 31.6243 28.7387 28.97 29.1143 25.9595H21.9854ZM43.8779 25.9595C44.2534 28.9702 45.7767 31.6243 47.9951 33.4712C49.6467 31.3573 50.728 28.7763 51.0078 25.9595H43.8779ZM24.998 15.5298C23.3464 17.6438 22.265 20.2255 21.9854 23.0425H29.1143C28.7388 20.0318 27.2167 17.3768 24.998 15.5298ZM35.0381 9.98975C31.9912 10.2923 29.22 11.5321 27.0176 13.4175C29.7951 15.7954 31.6673 19.1999 32.0488 23.0425H35.0381V9.98975ZM37.9551 23.0425H40.9434C41.3249 19.1999 43.198 15.7954 45.9756 13.4175C43.7732 11.532 41.002 10.2924 37.9551 9.98975V23.0425ZM47.9951 15.5298C45.7766 17.3768 44.2533 20.0317 43.8779 23.0425H51.0078C50.7281 20.2255 49.6468 17.6438 47.9951 15.5298Z" fill="#FF8C00"/>
</svg>
