<svg width="60" height="68" viewBox="0 0 60 68" fill="none" xmlns="http://www.w3.org/2000/svg">
<path d="M36 0.504395C49.2548 0.504395 60 11.2496 60 24.5044C60 37.7592 49.2548 48.5044 36 48.5044C27 48.5044 20.0836 48.5048 19 55.0093C18.6544 57.0843 18.5008 62.0096 27.5 68.0093C4.00033 58.5048 0.5 44.0044 0.5 33.5044C0.5 17.5045 14.5 0.504395 36 0.504395ZM36 9.0835C32.0525 9.0835 28.4482 10.569 25.7217 13.0093C22.5703 15.8299 20.5831 19.9337 20.583 24.4995C20.583 29.0655 22.5701 33.1701 25.7217 35.9907C28.4481 38.4309 32.0525 39.9165 36 39.9165C39.9476 39.9165 43.5518 38.4309 46.2783 35.9907C49.4297 33.1701 51.417 29.0655 51.417 24.4995C51.4169 19.9337 49.4296 15.8299 46.2783 13.0093C43.5518 10.569 39.9475 9.08352 36 9.0835ZM36 12.1665C38.5739 12.1665 40.9616 12.9533 42.9385 14.3013C40.5408 17.0179 39.0831 20.5895 39.083 24.4995C39.083 28.4096 40.5408 31.9811 42.9385 34.6978C40.9616 36.0457 38.5739 36.8335 36 36.8335C33.4262 36.8335 31.0384 36.0457 29.0615 34.6978C31.4593 31.9811 32.917 28.4096 32.917 24.4995C32.9169 20.5895 31.4593 17.0179 29.0615 14.3013C31.0384 12.9534 33.4262 12.1665 36 12.1665ZM26.75 16.3423C28.6701 18.5174 29.8329 21.3718 29.833 24.4995C29.833 27.6274 28.6702 30.4826 26.75 32.6577C24.8298 30.4825 23.667 27.6275 23.667 24.4995C23.6671 21.3718 24.8299 18.5174 26.75 16.3423ZM45.25 16.3423C47.1701 18.5174 48.3329 21.3719 48.333 24.4995C48.333 27.6274 47.1702 30.4825 45.25 32.6577C43.3298 30.4825 42.167 27.6274 42.167 24.4995C42.1671 21.3718 43.3299 18.5174 45.25 16.3423Z" fill="#96DD21"/>
</svg>
