<svg width="60" height="69" viewBox="0 0 60 69" fill="none" xmlns="http://www.w3.org/2000/svg">
<path d="M35.5 0.9729C48.7548 0.9729 59.5 11.7181 59.5 24.9729C59.5 38.2277 48.7548 48.9729 35.5 48.9729C26.5 48.9729 19.5836 48.9733 18.5 55.4778C18.1544 57.5528 18.0008 62.4781 27 68.4778C3.50033 58.9733 0 44.4729 0 33.9729C0 17.973 14 0.9729 35.5 0.9729ZM19.9346 24.4231C19.7526 25.0783 19.6066 25.7509 19.498 26.4387L18.4277 33.218C18.1917 34.7154 19.2146 36.1204 20.7119 36.3567L27.4902 37.427C28.1779 37.5355 28.8626 37.6033 29.542 37.6321L19.9346 24.4231ZM33.8037 13.3245C28.5553 14.0791 23.9827 17.4062 21.6484 22.1672L32.2168 36.6965C37.4654 35.942 42.0387 32.6158 44.373 27.8547L33.8037 13.3245ZM34.7598 22.2073C35.3125 21.8052 36.087 21.9271 36.4893 22.4797C36.8913 23.0325 36.7694 23.807 36.2168 24.2092L31.2607 27.8137C30.708 28.2157 29.9345 28.0938 29.5322 27.5413C29.1301 26.9884 29.2518 26.2139 29.8047 25.8118L34.7598 22.2073ZM46.0859 25.5979C46.2679 24.9426 46.4149 24.2701 46.5234 23.5823L47.5928 16.804C47.8291 15.3064 46.8071 13.9006 45.3096 13.6643L38.5312 12.594C37.8433 12.4854 37.158 12.4186 36.4785 12.3899L46.0859 25.5979Z" fill="#007BFF"/>
</svg>
