<svg width="60" height="68" viewBox="0 0 60 68" fill="none" xmlns="http://www.w3.org/2000/svg">
<path d="M36 0.468506C49.2548 0.468506 60 11.2137 60 24.4685C60 37.7233 49.2548 48.4685 36 48.4685C27 48.4685 20.0836 48.4689 19 54.9734C18.6544 57.0484 18.5008 61.9737 27.5 67.9734C4.00033 58.4689 0.5 43.9685 0.5 33.4685C0.5 17.4686 14.5 0.468506 36 0.468506ZM35.4688 8.91675C31.7471 8.92473 28.028 10.3488 25.1885 13.1882C19.4933 18.8834 19.4934 28.117 25.1885 33.8123C30.8836 39.5071 40.1173 39.5073 45.8125 33.8123C51.5074 28.1172 51.5073 18.8834 45.8125 13.1882C42.9722 10.3479 39.251 8.92398 35.5283 8.91675C35.5085 8.91635 35.4886 8.91634 35.4688 8.91675ZM28.5273 27.5906C30.6463 30.5049 33.7351 33.0985 37.1445 35.0505C33.6376 35.5471 29.9484 34.447 27.251 31.7498C26.7346 31.2334 26.2763 30.6802 25.877 30.0994C26.5607 29.2058 27.4729 28.3462 28.5273 27.5906ZM34.7617 25.0154C36.0051 26.7191 37.7869 28.2095 39.7158 29.323C41.1467 30.149 42.717 30.8009 44.2881 31.1746C44.1165 31.3707 43.937 31.5628 43.75 31.7498C42.9278 32.5719 42.0133 33.2458 41.04 33.7712C37.0503 31.9648 33.3807 29.1894 31.0635 26.115C32.3127 25.5381 33.5866 25.1557 34.7617 25.0154ZM44.6943 16.3162C47.4613 19.8484 47.9061 24.6083 46.0283 28.5349C44.9137 28.3895 43.7139 28.0303 42.5332 27.4958C43.9968 24.2069 44.7021 20.2412 44.6943 16.3162ZM35.4551 18.3474C35.3302 19.7193 35.0233 21.0145 34.5566 22.1033C32.46 22.3285 30.2784 23.1265 28.3496 24.24C26.9181 25.0665 25.5674 26.1004 24.458 27.2751C23.993 25.9117 23.7877 24.4788 23.8418 23.0544C27.427 20.5511 31.6468 18.8077 35.4551 18.3474ZM37.7529 12.0515C39.1112 12.3175 40.4313 12.8268 41.6436 13.5789C42.0648 17.9372 41.4907 22.497 39.9863 26.0388C38.86 25.2446 37.8915 24.3305 37.1816 23.3816C38.0352 21.4531 38.4346 19.1645 38.4346 16.9373C38.4345 15.285 38.215 13.599 37.7529 12.0515ZM34.5977 11.8679C35.0286 12.9056 35.3161 14.1237 35.4434 15.4128C31.8777 15.7841 28.1069 17.128 24.707 19.0632C25.2765 17.6765 26.1247 16.377 27.251 15.2507C29.2993 13.2025 31.9195 12.0745 34.5977 11.8679Z" fill="#9B5DE5"/>
</svg>
