<svg width="60" height="68" viewBox="0 0 60 68" fill="none" xmlns="http://www.w3.org/2000/svg">
<path d="M35.5 0.486572C48.7548 0.486572 59.5 11.2317 59.5 24.4866C59.5 37.7414 48.7548 48.4866 35.5 48.4866C26.5 48.4866 19.5836 48.4869 18.5 54.9915C18.1544 57.0665 18.0008 61.9917 27 67.9915C3.50033 58.4869 0 43.9866 0 33.4866C0 17.4867 14 0.486572 35.5 0.486572ZM34.585 10.0002C26.5299 10.0003 20 16.5301 20 24.5852C20.0001 32.6401 26.53 39.1701 34.585 39.1702C42.6399 39.1702 49.1698 32.6401 49.1699 24.5852C49.1699 16.5301 42.64 10.0002 34.585 10.0002ZM29.4805 24.5852C30.4675 24.5853 31.3019 25.2387 31.5742 26.137C31.3731 26.076 31.1595 26.0432 30.9385 26.0432C29.7303 26.0434 28.751 27.0236 28.751 28.2317C28.751 28.4524 28.7838 28.6655 28.8447 28.8665C27.9465 28.5943 27.293 27.7599 27.293 26.7727C27.293 25.5645 28.2722 24.5852 29.4805 24.5852ZM26.5635 20.2092C27.5506 20.2093 28.385 20.8637 28.6572 21.762C28.4561 21.701 28.2425 21.6682 28.0215 21.6682C26.8134 21.6684 25.834 22.6476 25.834 23.8557C25.834 24.0767 25.8668 24.2903 25.9277 24.4915C25.0296 24.2193 24.3762 23.3848 24.376 22.3977C24.376 21.1894 25.3552 20.2092 26.5635 20.2092ZM33.8555 20.2092C34.8427 20.2092 35.678 20.8636 35.9502 21.762C35.7491 21.701 35.5353 21.6682 35.3145 21.6682C34.1062 21.6682 33.127 22.6475 33.127 23.8557C33.127 24.0767 33.1597 24.2903 33.2207 24.4915C32.3224 24.2193 31.6682 23.3848 31.668 22.3977C31.668 21.1895 32.6474 20.2094 33.8555 20.2092ZM30.9385 15.8342C31.9257 15.8342 32.761 16.4877 33.0332 17.386C32.8321 17.325 32.6183 17.2923 32.3975 17.2922C31.1892 17.2922 30.21 18.2724 30.21 19.4807C30.21 19.7015 30.2428 19.9145 30.3037 20.1155C29.4054 19.8432 28.751 19.009 28.751 18.0217C28.751 16.8136 29.7303 15.8344 30.9385 15.8342Z" fill="#FC6051"/>
</svg>
