<svg width="60" height="69" viewBox="0 0 60 69" fill="none" xmlns="http://www.w3.org/2000/svg">
<path d="M36 0.9729C49.2548 0.9729 60 11.7181 60 24.9729C60 38.2277 49.2548 48.9729 36 48.9729C27 48.9729 20.0836 48.9733 19 55.4778C18.6544 57.5528 18.5008 62.4781 27.5 68.4778C4.00033 58.9733 0.5 44.4729 0.5 33.9729C0.5 17.973 14.5 0.9729 36 0.9729ZM35.5 9.91724C33.6885 9.91725 31.9508 10.2477 30.3467 10.8538C27.8797 11.7858 25.7337 13.3659 24.1152 15.385C22.1143 17.8813 20.917 21.0531 20.917 24.5002C20.917 24.7279 20.9223 24.9545 20.9326 25.1799C21.0568 27.8796 21.9155 30.3906 23.3135 32.5129C25.237 35.4331 28.1838 37.622 31.6484 38.5686C32.8771 38.9042 34.1689 39.0832 35.5 39.0833C36.8312 39.0833 38.1229 38.9042 39.3516 38.5686C42.8163 37.622 45.763 35.4331 47.6865 32.5129C49.0845 30.3906 49.9433 27.8796 50.0674 25.1799C50.0777 24.9545 50.083 24.7279 50.083 24.5002C50.083 21.0531 48.8856 17.8813 46.8848 15.385C45.2663 13.3659 43.1203 11.7858 40.6533 10.8538C39.0492 10.2477 37.3115 9.91724 35.5 9.91724ZM40.334 13.8782C41.7708 14.5333 43.0529 15.4725 44.1074 16.6243L43.2441 19.2795C42.6585 21.0821 43.3007 23.057 44.834 24.1711L47.0938 25.8137C46.9146 27.4138 46.4126 28.9152 45.6533 30.2522H42.8574C40.9622 30.2524 39.283 31.4733 38.6973 33.2756L37.833 35.9338C37.0803 36.0865 36.3001 36.1663 35.5 36.1663C34.6998 36.1663 33.9198 36.0865 33.167 35.9338L32.3027 33.2756C31.7171 31.4732 30.0378 30.2523 28.1426 30.2522H25.3477C24.5883 28.9151 24.0853 27.4139 23.9062 25.8137L26.167 24.1711C27.7001 23.0569 28.3415 21.082 27.7559 19.2795L26.8926 16.6243C27.9471 15.4726 29.2292 14.5333 30.666 13.8782L32.9287 15.5217C34.4621 16.6356 36.5379 16.6356 38.0713 15.5217L40.334 13.8782ZM38.0713 20.1907C36.538 19.0769 34.462 19.0769 32.9287 20.1907L32.1963 20.7229C30.663 21.837 30.0217 23.8121 30.6074 25.6145L30.8867 26.4749C31.4724 28.2775 33.1526 29.4983 35.0479 29.4983H35.9521C37.8474 29.4983 39.5276 28.2775 40.1133 26.4749L40.3936 25.6145C40.9792 23.812 40.337 21.837 38.8037 20.7229L38.0713 20.1907Z" fill="#00BBF9"/>
</svg>
