<svg width="60" height="69" viewBox="0 0 60 69" fill="none" xmlns="http://www.w3.org/2000/svg">
<path d="M35.5 0.963867C48.7548 0.963867 59.5 11.709 59.5 24.9639C59.5 38.2187 48.7548 48.9639 35.5 48.9639C26.5 48.9639 19.5836 48.9642 18.5 55.4688C18.1544 57.5438 18.0008 62.469 27 68.4688C3.50033 58.9642 0 44.4639 0 33.9639C0 17.964 14 0.963867 35.5 0.963867ZM48.3438 31.4502C47.9352 30.7585 47.0432 30.5292 46.3516 30.9375C43.5148 32.6128 39.6898 33.7409 35.3867 33.9424C34.5844 33.9799 33.9644 34.6614 34.002 35.4639C34.0396 36.2661 34.7202 36.8862 35.5225 36.8486C40.2263 36.6284 44.5266 35.3932 47.8301 33.4424C48.5218 33.034 48.7521 32.1418 48.3438 31.4502ZM46.7969 18.4648C47.2151 19.2015 47.4541 20.0111 47.4541 20.8838C47.4539 23.2943 45.6278 25.2183 43.2529 26.4756C40.8291 27.7589 37.5558 28.5195 34 28.5195C30.4443 28.5195 27.1709 27.7589 24.7471 26.4756C22.3722 25.2183 20.5461 23.2943 20.5459 20.8838C20.5459 20.0111 20.785 19.2015 21.2031 18.4648C19.3311 19.8125 18 21.6096 18 23.793C18.0002 26.6488 20.2777 28.8429 23.0645 30.2363C25.9383 31.6732 29.8066 32.5195 34 32.5195C38.1934 32.5195 42.0617 31.6732 44.9355 30.2363C47.7222 28.8429 49.9998 26.6488 50 23.793C50 21.6096 48.669 19.8125 46.7969 18.4648ZM34 15.4297C30.7275 15.4297 27.8185 16.134 25.7676 17.2197C23.6681 18.3313 22.7276 19.6796 22.7275 20.8838C22.7275 22.0881 23.6681 23.4362 25.7676 24.5479C27.8185 25.6335 30.7275 26.3389 34 26.3389C37.2724 26.3388 40.1806 25.6335 42.2314 24.5479C44.3311 23.4361 45.2725 22.0882 45.2725 20.8838C45.2724 19.6796 44.331 18.3313 42.2314 17.2197C40.1806 16.1341 37.2724 15.4297 34 15.4297ZM32.4775 10.7373C27.7736 10.9575 23.4735 12.1926 20.1699 14.1436C19.4782 14.552 19.2487 15.444 19.6572 16.1357C20.0658 16.8272 20.9578 17.0569 21.6494 16.6484C24.4861 14.9733 28.3105 13.845 32.6133 13.6436C33.4156 13.606 34.0366 12.9245 33.999 12.1221C33.9614 11.3197 33.28 10.6998 32.4775 10.7373Z" fill="#F15BB5"/>
</svg>
