<svg width="60" height="68" viewBox="0 0 60 68" fill="none" xmlns="http://www.w3.org/2000/svg">
<path d="M36 -0.0090332C49.2548 -0.0090332 60 10.7361 60 23.991C60 37.2458 49.2548 47.991 36 47.991C27 47.991 20.0836 47.9913 19 54.4958C18.6544 56.5709 18.5008 61.4961 27.5 67.4958C4.00033 57.9913 0.5 43.491 0.5 32.991C0.5 16.9911 14.5 -0.0090332 36 -0.0090332ZM36 7.99097C27.4396 7.99097 20.5 14.9305 20.5 23.491C20.5 32.0513 27.4396 38.991 36 38.991C44.5603 38.991 51.5 32.0513 51.5 23.491C51.5 14.9305 44.5603 7.99097 36 7.99097ZM36 11.0906C42.8484 11.0906 48.4004 16.6426 48.4004 23.491C48.4004 30.3393 42.8484 35.8914 36 35.8914C29.1517 35.8914 23.5996 30.3393 23.5996 23.491C23.5996 16.6426 29.1517 11.0906 36 11.0906ZM29.1045 29.7439C28.6812 29.5173 28.1561 29.6794 27.9004 30.0857C27.6447 30.4919 27.7268 31.0337 28.1143 31.3171L29.0381 31.9929C29.5223 32.3468 30.2049 32.2449 30.5244 31.7371C30.8439 31.2294 30.6421 30.5672 30.1133 30.2839L29.1045 29.7439ZM44.0947 30.0857C43.839 29.6794 43.3139 29.5173 42.8906 29.7439L41.8818 30.2839C41.3531 30.5672 41.1511 31.2293 41.4707 31.7371C41.7903 32.2449 42.4728 32.3469 42.957 31.9929L43.8809 31.3171C44.2682 31.0337 44.3503 30.4919 44.0947 30.0857ZM30.376 26.2615C29.9069 26.1619 29.448 26.4667 29.3154 26.9275C29.1829 27.3883 29.4129 27.8829 29.8633 28.0476L30.9375 28.4402C31.5014 28.6463 32.1288 28.3619 32.2949 27.7849C32.461 27.2078 32.0825 26.6245 31.4951 26.4998L30.376 26.2615ZM42.6787 26.9275C42.5462 26.4667 42.0873 26.1618 41.6182 26.2615L40.499 26.4998C39.9117 26.6245 39.5342 27.2078 39.7002 27.7849C39.8663 28.3617 40.4929 28.6462 41.0566 28.4402L42.1318 28.0476C42.5822 27.8828 42.8113 27.3882 42.6787 26.9275ZM31.7773 22.4812L30.6357 22.5603C30.1561 22.5937 29.7969 23.0102 29.7969 23.491C29.797 23.9718 30.1562 24.3872 30.6357 24.4207L31.7773 24.4998C32.3751 24.5411 32.8973 24.0901 32.8975 23.491C32.8975 22.8916 32.3752 22.4399 31.7773 22.4812ZM40.2178 22.4812C39.6198 22.4398 39.0977 22.8916 39.0977 23.491C39.0979 24.0902 39.6199 24.5411 40.2178 24.4998L41.3584 24.4207C41.8382 24.3875 42.1971 23.9719 42.1973 23.491C42.1973 23.01 41.8383 22.5935 41.3584 22.5603L40.2178 22.4812ZM32.2949 19.197C32.1288 18.62 31.5014 18.3356 30.9375 18.5417L29.8633 18.9343C29.4129 19.099 29.1828 19.5936 29.3154 20.0544C29.448 20.5153 29.9069 20.82 30.376 20.7205L31.4951 20.4822C32.0825 20.3574 32.461 19.7741 32.2949 19.197ZM41.0566 18.5417C40.4929 18.3357 39.8663 18.6202 39.7002 19.197C39.5342 19.7741 39.9117 20.3574 40.499 20.4822L41.6182 20.7205C42.0873 20.8201 42.5462 20.5153 42.6787 20.0544C42.8114 19.5936 42.5822 19.0991 42.1318 18.9343L41.0566 18.5417ZM30.5244 15.2449C30.2048 14.7371 29.5223 14.6349 29.0381 14.989L28.1143 15.6648C27.7269 15.9483 27.6447 16.49 27.9004 16.8962C28.1562 17.3024 28.6813 17.4646 29.1045 17.238L30.1133 16.698C30.6421 16.4148 30.8437 15.7526 30.5244 15.2449ZM42.957 14.989C42.4728 14.6348 41.7903 14.7371 41.4707 15.2449C41.1513 15.7526 41.353 16.4148 41.8818 16.698L42.8906 17.238C43.3139 17.4646 43.8389 17.3024 44.0947 16.8962C44.3503 16.49 44.2681 15.9483 43.8809 15.6648L42.957 14.989Z" fill="#E63946"/>
</svg>
