<svg width="60" height="69" viewBox="0 0 60 69" fill="none" xmlns="http://www.w3.org/2000/svg">
<path d="M35.5 0.981934C48.7548 0.981934 59.5 11.7271 59.5 24.9819C59.5 38.2368 48.7548 48.9819 35.5 48.9819C26.5 48.9819 19.5836 48.9823 18.5 55.4868C18.1544 57.5618 18.0008 62.4871 27 68.4868C3.50033 58.9823 0 44.4819 0 33.9819C0 17.9821 14 0.981934 35.5 0.981934ZM34.5 10.0005C25.9397 10.0005 19.0003 16.9393 19 25.4995C19 34.0599 25.9396 40.9995 34.5 40.9995C43.0604 40.9995 50 34.0599 50 25.4995C49.9997 16.9393 43.0603 10.0005 34.5 10.0005ZM34.5 13.1001C41.3482 13.1001 46.9001 18.6514 46.9004 25.4995C46.9004 32.3478 41.3483 37.8999 34.5 37.8999C27.6517 37.8999 22.0996 32.3478 22.0996 25.4995C22.0999 18.6514 27.6518 13.1001 34.5 13.1001ZM31.2432 29.9946C30.3016 29.9946 29.5382 30.7582 29.5381 31.6997C29.5381 32.6413 30.3015 33.4048 31.2432 33.4048C32.1847 33.4048 32.9482 32.6413 32.9482 31.6997C32.9482 30.7581 32.1847 29.9946 31.2432 29.9946ZM37.7529 29.9946C36.8114 29.9946 36.0479 30.7581 36.0479 31.6997C36.0479 32.6413 36.8113 33.4048 37.7529 33.4048C38.6945 33.4047 39.458 32.6413 39.458 31.6997C39.4579 30.7582 38.6944 29.9947 37.7529 29.9946ZM27.1348 23.7944C26.1934 23.7946 25.4299 24.5581 25.4297 25.4995C25.4297 26.441 26.1933 27.2044 27.1348 27.2046C28.0764 27.2046 28.8398 26.4411 28.8398 25.4995C28.8397 24.558 28.0763 23.7944 27.1348 23.7944ZM34.498 23.7944C33.5565 23.7944 32.7932 24.558 32.793 25.4995C32.793 26.4411 33.5564 27.2046 34.498 27.2046C35.4396 27.2043 36.2021 26.441 36.2021 25.4995C36.202 24.5582 35.4395 23.7947 34.498 23.7944ZM41.8525 23.7944C40.9109 23.7944 40.1476 24.558 40.1475 25.4995C40.1475 26.4411 40.9108 27.2046 41.8525 27.2046C42.7942 27.2046 43.5576 26.4411 43.5576 25.4995C43.5574 24.5581 42.794 23.7944 41.8525 23.7944ZM31.2432 17.5952C30.3015 17.5952 29.5381 18.3587 29.5381 19.3003C29.5383 20.2417 30.3017 21.0044 31.2432 21.0044C32.1846 21.0044 32.948 20.2417 32.9482 19.3003C32.9482 18.3587 32.1847 17.5952 31.2432 17.5952ZM37.7529 17.5952C36.8113 17.5952 36.0479 18.3587 36.0479 19.3003C36.0481 20.2417 36.8115 21.0044 37.7529 21.0044C38.6943 21.0043 39.4578 20.2417 39.458 19.3003C39.458 18.3587 38.6945 17.5953 37.7529 17.5952Z" fill="#F8B500"/>
</svg>
