<svg width="24" height="24" viewBox="0 0 24 24" fill="none" xmlns="http://www.w3.org/2000/svg">
<path fill-rule="evenodd" clip-rule="evenodd" d="M11.2884 4C7.81396 5.07215 5.07215 7.81396 4 11.2884L12.7116 20C16.186 18.9279 18.9279 16.186 20 12.7116L11.2884 4ZM14.0858 11.1147C14.4173 10.7832 14.4173 10.2457 14.0858 9.91417C13.7543 9.58267 13.2168 9.58267 12.8853 9.91417L9.91417 12.8853C9.58267 13.2168 9.58267 13.7543 9.91417 14.0858C10.2457 14.4173 10.7832 14.4173 11.1147 14.0858L14.0858 11.1147Z" fill="#007BFF"/>
<path d="M3 14.4119C3 13.9344 3.02736 13.4633 3.08058 13L11 20.9194C10.5367 20.9726 10.0656 21 9.58808 21H4.88231C3.84274 21 3 20.1573 3 19.1177V14.4119Z" fill="#007BFF"/>
<path d="M20.9194 11C20.9726 10.5367 21 10.0656 21 9.58808V4.88231C21 3.84274 20.1573 3 19.1177 3H14.4119C13.9344 3 13.4633 3.02736 13 3.08058L20.9194 11Z" fill="#007BFF"/>
</svg>
