<svg width="24" height="24" viewBox="0 0 24 24" fill="none" xmlns="http://www.w3.org/2000/svg">
<path d="M13.5631 3C14.957 3 16.2574 3.98288 16.441 5.47363L16.4947 5.95508C16.6439 7.46421 16.633 9.0918 16.3738 10.6527C15.7263 10.5608 15.0555 10.5091 14.3701 10.5011C14.6211 9.11146 14.6466 7.60412 14.5045 6.16016L14.4557 5.71777C14.4083 5.33508 14.0568 5 13.5631 5H12.3482C12.5737 6.81492 12.5564 8.76056 12.2014 10.6241C11.4516 10.7197 10.7314 10.8689 10.0541 11.0666C10.5516 9.1382 10.6075 7.00028 10.3297 5H8.03384C7.72724 7.20723 7.8281 9.57793 8.47692 11.6504C8.2331 11.7623 7.99826 11.8815 7.7733 12.0078C7.40928 12.2122 7.0537 12.4462 6.72093 12.7095C5.85507 10.2627 5.70518 7.50485 6.01626 5H4.81606C4.3792 5 4.05402 5.26133 3.95083 5.58398L3.92055 5.72559C3.58941 8.67339 4.04496 11.5932 5.48572 14.0021C4.99177 14.7143 4.68163 15.5483 4.68163 16.5C4.68163 16.6705 4.69157 16.8371 4.71074 17H3.1813C2.62924 16.9997 2.1813 16.5521 2.1813 16C2.1813 15.4479 2.62924 15.0003 3.1813 15H3.75161C2.05387 12.1457 1.56627 8.76816 1.93325 5.50195L1.97817 5.22559C2.26677 3.87542 3.50118 3 4.81606 3H13.5631Z" fill="#00B58B"/>
<path d="M19.5566 14.4999C19.5566 13.8481 19.0989 13.1427 18.1093 12.5654L18.0619 12.538C16.9045 12.1911 15.5765 12 14.1816 12C12.7867 12 11.4587 12.1911 10.3013 12.538L10.2539 12.5654C9.26433 13.1427 8.80664 13.8481 8.80664 14.4999C8.80664 15.1518 9.26433 15.8572 10.2539 16.4345C11.2282 17.0029 12.6155 17.3749 14.1816 17.3749C15.7477 17.3749 17.135 17.0029 18.1093 16.4345C19.0989 15.8572 19.5566 15.1518 19.5566 14.4999Z" fill="#00B58B"/>
<path d="M6.18164 16.5C6.18164 15.4085 6.79236 14.5235 7.63341 13.8557C7.58325 14.0629 7.55664 14.2779 7.55664 14.4999C7.55664 15.781 8.4422 16.8252 9.62402 17.5146C10.8212 18.213 12.434 18.6249 14.1816 18.6249C15.9292 18.6249 17.542 18.213 18.7392 17.5146C19.921 16.8252 20.8066 15.781 20.8066 14.4999C20.8066 14.2779 20.78 14.0629 20.7298 13.8557C21.5709 14.5235 22.1816 15.4085 22.1816 16.5C22.1816 18.0493 20.9511 19.1826 19.5781 19.8691C18.1452 20.5855 16.236 21 14.1816 21C12.1272 21 10.218 20.5855 8.78516 19.8691C7.4121 19.1826 6.18164 18.0493 6.18164 16.5Z" fill="#00B58B"/>
</svg>
