<svg width="24" height="24" viewBox="0 0 24 24" fill="none" xmlns="http://www.w3.org/2000/svg">
<path fill-rule="evenodd" clip-rule="evenodd" d="M15.3145 4.7165L13.7634 5.84346C12.7119 6.60739 11.2881 6.60739 10.2366 5.84346L8.68552 4.7165C7.70018 5.16572 6.82112 5.80955 6.09797 6.59935L6.68969 8.42047C7.09131 9.65654 6.65134 11.0106 5.59988 11.7746L4.05004 12.9006C4.17282 13.9979 4.51741 15.0274 5.03811 15.9443H6.95469C8.25437 15.9443 9.40624 16.7812 9.80786 18.0172L10.4002 19.8402C10.9164 19.9449 11.4513 20 12 20C12.5487 20 13.0836 19.9449 13.5998 19.8402L14.1921 18.0172C14.5938 16.7812 15.7456 15.9443 17.0453 15.9443H18.9619C19.4826 15.0274 19.8272 13.9979 19.95 12.9006L18.4001 11.7746C17.3487 11.0106 16.9087 9.65654 17.3103 8.42047L17.902 6.59935C17.1789 5.80955 16.2998 5.16572 15.3145 4.7165ZM8.46638 2.64253C9.56638 2.22695 10.7578 2 12 2C13.2422 2 14.4336 2.22695 15.5336 2.64253C17.2253 3.28166 18.6968 4.3653 19.8066 5.74987C21.1786 7.46163 22 9.63626 22 12C22 12.1562 21.9964 12.3117 21.9893 12.4664C21.9042 14.3176 21.3152 16.039 20.3566 17.4943C19.0376 19.4968 17.017 20.9982 14.6411 21.6473C13.7986 21.8774 12.9128 22 12 22C11.0872 22 10.2014 21.8774 9.3589 21.6473C6.98303 20.9982 4.96244 19.4968 3.64343 17.4943C2.68484 16.039 2.09583 14.3176 2.0107 12.4664C2.00359 12.3117 2 12.1562 2 12C2 9.63626 2.82136 7.46163 4.19344 5.74987C5.30325 4.3653 6.77466 3.28166 8.46638 2.64253ZM10.2366 9.04508C11.2881 8.28115 12.7119 8.28115 13.7634 9.04508L14.2654 9.40983C15.3168 10.1738 15.7568 11.5279 15.3552 12.7639L15.1634 13.3541C14.7618 14.5902 13.6099 15.4271 12.3103 15.4271H11.6897C10.3901 15.4271 9.23818 14.5902 8.83656 13.3541L8.6448 12.7639C8.24318 11.5279 8.68315 10.1738 9.73462 9.40983L10.2366 9.04508Z" fill="#00BBF9"/>
</svg>
