<svg width="24" height="24" viewBox="0 0 24 24" fill="none" xmlns="http://www.w3.org/2000/svg">
<path d="M11.0468 4.52224C11.5984 4.49642 12.0247 4.02826 11.9989 3.47658C11.9731 2.9249 11.5049 2.49861 10.9532 2.52443C7.7192 2.67583 4.76274 3.52483 2.49149 4.86613C2.01594 5.14696 1.85809 5.76014 2.13893 6.23569C2.41977 6.71124 3.03294 6.86909 3.50849 6.58825C5.45882 5.43648 8.0884 4.66073 11.0468 4.52224Z" fill="#F15BB5"/>
<path d="M21.5085 18.1339C21.9841 17.8531 22.1419 17.2399 21.8611 16.7644C21.5802 16.2888 20.967 16.131 20.4915 16.4118C18.5412 17.5636 15.9116 18.3393 12.9532 18.4778C12.4016 18.5036 11.9753 18.9718 12.0011 19.5235C12.0269 20.0752 12.4951 20.5015 13.0468 20.4756C16.2808 20.3242 19.2373 19.4752 21.5085 18.1339Z" fill="#F15BB5"/>
<path d="M6.34046 6.98074C4.89692 7.74497 4.24995 8.67194 4.24995 9.49986C4.24995 10.3279 4.89692 11.2548 6.34046 12.0191C7.75044 12.7655 9.75009 13.2499 12 13.2499C14.2499 13.2499 16.2495 12.7655 17.6595 12.0191C19.103 11.2548 19.75 10.3279 19.75 9.49986C19.75 8.67194 19.103 7.74497 17.6595 6.98074C16.2495 6.23428 14.2499 5.74988 12 5.74988C9.75009 5.74988 7.75044 6.23428 6.34046 6.98074Z" fill="#F15BB5"/>
<path d="M0.999954 11.5C0.999954 9.99886 1.915 8.76375 3.20203 7.83722C2.91454 8.34369 2.74995 8.89988 2.74995 9.49986C2.74995 11.1573 4.00577 12.4803 5.63863 13.3447C7.30504 14.227 9.55539 14.7499 12 14.7499C14.4446 14.7499 16.6949 14.227 18.3613 13.3447C19.9942 12.4803 21.25 11.1573 21.25 9.49986C21.25 8.89988 21.0854 8.3437 20.7979 7.83722C22.085 8.76375 23 9.99886 23 11.5C23 13.4635 21.4342 14.9719 19.5183 15.9299C17.5425 16.9178 14.883 17.5 12 17.5C9.11694 17.5 6.45743 16.9178 4.48167 15.9299C2.56572 14.9719 0.999954 13.4635 0.999954 11.5Z" fill="#F15BB5"/>
</svg>
