<svg width="24" height="24" viewBox="0 0 24 24" fill="none" xmlns="http://www.w3.org/2000/svg">
<path fill-rule="evenodd" clip-rule="evenodd" d="M11.9785 2.00003C9.42642 2.0055 6.87607 2.98181 4.92893 4.92894C1.02368 8.83417 1.0237 15.1658 4.92893 19.0711C8.83416 22.9763 15.1658 22.9763 19.0711 19.0711C22.9763 15.1659 22.9763 8.8342 19.0711 4.92894C17.1235 2.98129 14.5723 2.00499 12.0196 2.00003C12.0059 1.99975 11.9922 1.99975 11.9785 2.00003ZM11.3811 4.02384C11.6767 4.73543 11.8742 5.57061 11.9614 6.45467C9.5163 6.70921 6.93041 7.63025 4.59897 8.95729C4.98944 8.00639 5.57083 7.11546 6.34314 6.34316C7.74772 4.93859 9.54464 4.16548 11.3811 4.02384ZM4.00579 11.6947C3.96872 12.6714 4.10962 13.6536 4.42848 14.5886C5.18926 13.783 6.11532 13.0739 7.09698 12.5072C8.41964 11.7436 9.9155 11.1967 11.3533 11.0422C11.6733 10.2956 11.8833 9.40726 11.9689 8.46642C9.35751 8.78208 6.46424 9.97806 4.00579 11.6947ZM11.4938 13.0391C10.688 13.1353 9.81461 13.3972 8.95793 13.7928C10.5469 15.901 13.0628 17.8043 15.7987 19.043C16.4661 18.6827 17.0931 18.2207 17.6569 17.6569C17.7851 17.5287 17.9081 17.3972 18.0258 17.2627C16.9485 17.0064 15.872 16.5593 14.8908 15.9928C13.5682 15.2293 12.3464 14.2074 11.4938 13.0391ZM19.2192 15.4523C20.5068 12.7598 20.2019 9.49603 18.3046 7.07395C18.3099 9.76543 17.8265 12.4845 16.8229 14.7397C17.6325 15.1062 18.4549 15.3527 19.2192 15.4523ZM15.0765 13.7405C16.1081 11.3118 16.5015 8.18547 16.2127 5.1969C15.3814 4.68116 14.4761 4.3321 13.5447 4.1497C13.8616 5.21095 14.0125 6.36697 14.0125 7.50001C14.0125 9.02739 13.7382 10.5965 13.1529 11.9189C13.6396 12.5697 14.3042 13.1959 15.0765 13.7405ZM13.1279 19.9206C10.7899 18.582 8.67193 16.8034 7.21886 14.8049C6.49568 15.3232 5.87021 15.9127 5.40132 16.5255C5.67513 16.9238 5.98908 17.3028 6.34315 17.6569C8.19287 19.5066 10.723 20.2612 13.1279 19.9206Z" fill="#9B5DE5"/>
</svg>
